<svg xmlns="http://www.w3.org/2000/svg" version="1.1" xmlns:xlink="http://www.w3.org/1999/xlink" xmlns:svgjs="http://svgjs.dev/svgjs" width="1500" height="378" viewBox="0 0 1500 378"><g transform="matrix(1,0,0,1,-0.9090909090909918,-0.3225068664874584)"><svg viewBox="0 0 396 100" data-background-color="#ffffff" preserveAspectRatio="xMidYMid meet" height="378" width="1500" xmlns="http://www.w3.org/2000/svg" xmlns:xlink="http://www.w3.org/1999/xlink"><g id="tight-bounds" transform="matrix(1,0,0,1,0.2400000000000091,0.08531927684853713)"><svg viewBox="0 0 395.52 99.8293614463029" height="99.8293614463029" width="395.52"><g><svg viewBox="0 0 622.4517951105099 157.10701162264152" height="99.8293614463029" width="395.52"><g><rect width="10.251861391147473" height="136.41708679245284" x="422.3573334846792" y="10.344962415094344" fill="#242222" opacity="1" stroke-width="0" stroke="transparent" fill-opacity="1" class="rect-qz-0" data-fill-palette-color="primary" rx="1%" id="qz-0" data-palette-color="#242222"></rect></g><g transform="matrix(1,0,0,1,0,21.71305298113208)"><svg viewBox="0 0 395.52 113.68090566037736" height="113.68090566037736" width="395.52"><g id="textblocktransform"><svg viewBox="0 0 395.52 113.68090566037736" height="113.68090566037736" width="395.52" id="textblock"><g><svg viewBox="0 0 395.52 113.68090566037736" height="113.68090566037736" width="395.52"><g transform="matrix(1,0,0,1,0,0)"><svg width="395.52" viewBox="1.75 -36 158.99 45.7" height="113.68090566037736" data-palette-color="#242222"><path d="M21.8-7.9L17.25-7.9Q17.25-9.75 16.2-11.18 15.15-12.6 13.5-13.85 11.85-15.1 9.98-16.4 8.1-17.7 6.45-19.25 4.8-20.8 3.75-22.78 2.7-24.75 2.7-27.35L2.7-27.35 7.25-27.35Q7.25-25.55 8.3-24.13 9.35-22.7 11-21.43 12.65-20.15 14.53-18.85 16.4-17.55 18.05-16.03 19.7-14.5 20.75-12.53 21.8-10.55 21.8-7.9L21.8-7.9ZM7.25-27.25L2.7-27.25Q2.7-30 3.95-31.95 5.2-33.9 7.45-34.95 9.7-36 12.6-36L12.6-36 12.6-32.1Q10.1-32.1 8.68-30.8 7.25-29.5 7.25-27.25L7.25-27.25ZM17.25-8L21.8-8Q21.8-5.3 20.55-3.33 19.3-1.35 17.07-0.3 14.85 0.75 11.9 0.75L11.9 0.75 11.9-3.2Q14.4-3.2 15.83-4.48 17.25-5.75 17.25-8L17.25-8ZM21.55-28.55L17.3-27.7Q17.05-29.95 15.73-31.03 14.4-32.1 12.6-32.1L12.6-32.1 12.6-36Q14.95-36 16.85-35.05 18.75-34.1 20-32.45 21.25-30.8 21.55-28.55L21.55-28.55ZM1.75-9.05L5.9-9.9Q6.2-6.75 7.78-4.98 9.35-3.2 11.9-3.2L11.9-3.2 11.9 0.75Q7.65 0.75 4.98-1.85 2.3-4.45 1.75-9.05L1.75-9.05ZM44.65 0L40.1 0 40.1-17.2 44.65-17.2 44.65 0ZM34 0.75L34 0.75 34.35-3Q36.15-3 37.42-3.9 38.7-4.8 39.4-6.55 40.1-8.3 40.1-10.7L40.1-10.7 42.35-10.8Q42.35-7.4 41.25-4.8 40.15-2.2 38.27-0.73 36.4 0.75 34 0.75ZM34.35-3L34 0.75Q31.75 0.75 29.9-0.3 28.05-1.35 26.95-3.18 25.85-5 25.85-7.25L25.85-7.25 30.15-7.4Q30.15-5.5 31.42-4.25 32.7-3 34.35-3L34.35-3ZM30.15-7.4L25.85-7.25Q25.85-9.6 27.02-11.38 28.2-13.15 30.2-14.2 32.2-15.25 34.75-15.25L34.75-15.25 35-11.75Q32.9-11.75 31.52-10.53 30.15-9.3 30.15-7.4L30.15-7.4ZM42.45-11.75L35-11.75 34.75-15.25 42.45-15.25 42.45-11.75ZM42.35-10.8L40.1-10.7 40.1-17.15 42.35-17.15 42.35-10.8ZM44.65-17.1L44.65-17.1 40.1-17.1Q40.1-19.3 38.77-20.7 37.45-22.1 35.35-22.1L35.35-22.1 35.35-26Q38.05-26 40.12-24.85 42.2-23.7 43.42-21.68 44.65-19.65 44.65-17.1ZM30.65-17.7L30.65-17.7 26.45-18.55Q26.75-20.8 27.97-22.45 29.2-24.1 31.12-25.05 33.05-26 35.4-26L35.4-26 35.4-22.1Q33.55-22.1 32.22-21.03 30.9-19.95 30.65-17.7ZM63.09-25.25L67.65-25.25 67.65 0 63.09 0 63.09-25.25ZM49.05-25.25L53.59-25.25 53.59-8.05 49.05-8.05 49.05-25.25ZM49.05-8.05L53.59-8.05Q53.59-5.95 54.92-4.63 56.25-3.3 58.3-3.3L58.3-3.3 57.15 0.75Q54.8 0.75 52.97-0.4 51.15-1.55 50.09-3.55 49.05-5.55 49.05-8.05L49.05-8.05ZM63.09-8.2L65.09-8.2Q65.09-5.65 64.07-3.63 63.05-1.6 61.22-0.43 59.4 0.75 57.15 0.75L57.15 0.75 58.3-3.3Q60.4-3.3 61.75-4.65 63.09-6 63.09-8.2L63.09-8.2ZM84.99 0L80.79 0 88.59-25.25 93.14-25.25 84.99 0ZM84.49 0L80.34 0 72.14-25.25 76.69-25.25 84.49 0ZM114.59 0L110.04 0 110.04-17.2 114.59-17.2 114.59 0ZM103.94 0.75L103.94 0.75 104.29-3Q106.09-3 107.37-3.9 108.64-4.8 109.34-6.55 110.04-8.3 110.04-10.7L110.04-10.7 112.29-10.8Q112.29-7.4 111.19-4.8 110.09-2.2 108.22-0.73 106.34 0.75 103.94 0.75ZM104.29-3L103.94 0.75Q101.69 0.75 99.84-0.3 97.99-1.35 96.89-3.18 95.79-5 95.79-7.25L95.79-7.25 100.09-7.4Q100.09-5.5 101.37-4.25 102.64-3 104.29-3L104.29-3ZM100.09-7.4L95.79-7.25Q95.79-9.6 96.97-11.38 98.14-13.15 100.14-14.2 102.14-15.25 104.69-15.25L104.69-15.25 104.94-11.75Q102.84-11.75 101.47-10.53 100.09-9.3 100.09-7.4L100.09-7.4ZM112.39-11.75L104.94-11.75 104.69-15.25 112.39-15.25 112.39-11.75ZM112.29-10.8L110.04-10.7 110.04-17.15 112.29-17.15 112.29-10.8ZM114.59-17.1L114.59-17.1 110.04-17.1Q110.04-19.3 108.72-20.7 107.39-22.1 105.29-22.1L105.29-22.1 105.29-26Q107.99-26 110.07-24.85 112.14-23.7 113.37-21.68 114.59-19.65 114.59-17.1ZM100.59-17.7L100.59-17.7 96.39-18.55Q96.69-20.8 97.92-22.45 99.14-24.1 101.07-25.05 102.99-26 105.34-26L105.34-26 105.34-22.1Q103.49-22.1 102.17-21.03 100.84-19.95 100.59-17.7ZM137.59 0.9L133.04 0.9 133.04-25.25 137.59-25.25 137.59 0.9ZM123.54-8.7L118.99-8.7 118.99-17.2 123.54-17.2 123.54-8.7ZM123.54-17.2L123.54-17.2 118.99-17.2Q118.99-19.7 120.04-21.7 121.09-23.7 122.91-24.85 124.74-26 127.09-26L127.09-26 128.24-21.95Q126.19-21.95 124.86-20.63 123.54-19.3 123.54-17.2ZM135.04-17.1L135.04-17.1 133.04-17.1Q133.04-19.25 131.69-20.6 130.34-21.95 128.24-21.95L128.24-21.95 127.09-26Q129.34-26 131.16-24.85 132.99-23.7 134.01-21.68 135.04-19.65 135.04-17.1ZM118.99-8.7L123.54-8.7Q123.54-6.6 124.86-5.28 126.19-3.95 128.24-3.95L128.24-3.95 127.09 0.1Q124.74 0.1 122.91-1.05 121.09-2.2 120.04-4.2 118.99-6.2 118.99-8.7L118.99-8.7ZM133.04-8.85L135.04-8.85Q135.04-6.3 134.01-4.28 132.99-2.25 131.16-1.07 129.34 0.1 127.09 0.1L127.09 0.1 128.24-3.95Q130.34-3.95 131.69-5.3 133.04-6.65 133.04-8.85L133.04-8.85ZM133.04 0.75L137.59 0.75Q137.59 3.3 136.39 5.33 135.19 7.35 133.09 8.53 130.99 9.7 128.34 9.7L128.34 9.7 128.34 5.75Q130.39 5.75 131.71 4.33 133.04 2.9 133.04 0.75L133.04 0.75ZM119.39 2.25L123.59 1.4Q123.84 3.6 125.19 4.67 126.54 5.75 128.34 5.75L128.34 5.75 128.34 9.7Q126.04 9.7 124.09 8.75 122.14 7.8 120.91 6.1 119.69 4.4 119.39 2.25L119.39 2.25ZM160.74-11.25L143.69-11.25 143.69-14.5 160.74-14.5 160.74-11.25ZM151.69 0.8L151.44 0.8 151.44-3.15 151.69-3.15 151.69 0.8ZM146.79-8.95L142.24-8.95 142.24-16.3 146.79-16.3 146.79-8.95ZM160.74-14.5L156.19-14.5 156.19-17.1 160.74-17.1 160.74-14.5ZM160.74-17.1L160.74-17.1 156.19-17.1Q156.19-19.3 154.86-20.7 153.54-22.1 151.44-22.1L151.44-22.1 151.44-26Q154.14-26 156.21-24.85 158.29-23.7 159.51-21.68 160.74-19.65 160.74-17.1ZM156.39-7.5L156.39-7.5 160.64-6.65Q160.34-4.5 159.09-2.8 157.84-1.1 155.94-0.15 154.04 0.8 151.69 0.8L151.69 0.8 151.69-3.15Q153.49-3.15 154.81-4.23 156.14-5.3 156.39-7.5ZM146.79-16.25L142.24-16.25Q142.24-19.1 143.46-21.28 144.69-23.45 146.76-24.73 148.84-26 151.49-26L151.49-26 151.49-22.1Q149.29-22.1 148.04-20.58 146.79-19.05 146.79-16.25L146.79-16.25ZM142.24-8.95L142.24-8.95 146.79-8.95Q146.79-6.2 148.04-4.67 149.29-3.15 151.49-3.15L151.49-3.15 151.49 0.8Q148.84 0.8 146.76-0.48 144.69-1.75 143.46-3.95 142.24-6.15 142.24-8.95Z" opacity="1" transform="matrix(1,0,0,1,0,0)" fill="#242222" class="wordmark-text-0" data-fill-palette-color="primary" id="text-0"></path></svg></g></svg></g></svg></g></svg></g><g transform="matrix(1,0,0,1,459.4465283605059,0)"><svg viewBox="0 0 163.00526675000393 157.10701162264152" height="157.10701162264152" width="163.00526675000393"><g><svg xmlns="http://www.w3.org/2000/svg" xmlns:xlink="http://www.w3.org/1999/xlink" version="1.1" x="0" y="0" viewBox="12.445000000000004 13.712999999999987 70.11299999999999 67.576" enable-background="new 0 0 95 95" xml:space="preserve" height="157.10701162264152" width="163.00526675000393" class="icon-icon-0" data-fill-palette-color="accent" id="icon-0"><path fill="#272425" d="M72.35 73.999c0.744 0.774 1.209 1.818 1.209 2.979 0 2.382-1.933 4.31-4.32 4.31-1.203 0-2.293-0.5-3.074-1.302-0.322-0.241-0.64-0.517-0.943-0.848-1.629-1.77-22.483-27.922-22.483-27.922-1.08-1.31-4.213-1.724-5.813-1.444-1.602 0.279-10.004-9.333-13.019-13.215-2.496-3.212-8.558-10.227-10.503-15.384-0.857-2.042-0.959-3.269-0.959-4.367 0-1.71 1.386-3.093 3.1-3.093 1.57 0 2.481 0.715 4.841 2.965 5.586 4.684 33.286 37.934 35.028 40.075 0 0 15.067 15.229 16.867 17.165 0.009 0.012 0.023 0.024 0.033 0.038 0.005 0.005 0.009 0.009 0.015 0.014C72.336 73.979 72.34 73.989 72.35 73.999zM21.507 73.771c-0.354 0.31-0.642 0.672-0.876 1.08-0.014 0.024-0.021 0.047-0.036 0.074-0.102 0.182-0.194 0.367-0.268 0.562-0.073 0.177-0.123 0.354-0.159 0.53-0.019 0.076-0.033 0.152-0.047 0.228-0.021 0.149-0.04 0.298-0.044 0.445-0.005 0.099-0.029 0.189-0.029 0.289 0 2.382 1.933 4.31 4.312 4.31 1.269 0 2.404-0.559 3.192-1.435 0.01-0.004 0.023-0.009 0.026-0.017 1.089-0.718 17.996-21.028 17.996-21.028l-3.751-4.547C41.824 54.261 23.768 71.504 21.507 73.771zM82.301 22.726c-0.042 0-0.075 0.028-0.108 0.044l-0.02-0.021c-0.013 0.015-0.023 0.034-0.042 0.043-0.004 0.01-0.014 0.019-0.024 0.031-5.162 5.615-13.679 14.188-14.062 13.771-0.388-0.421 12.718-15.379 12.718-15.379 0.091-0.085 0.152-0.204 0.152-0.336 0-0.258-0.209-0.469-0.47-0.469-0.123 0-0.312 0.124-0.312 0.124-0.006 0.004-0.006 0.007-0.006 0.007-0.004 0.009-0.009 0.017-0.019 0.021-0.01 0.012-13.703 14.216-14.11 13.81s12.736-15.363 12.736-15.363l-0.019-0.019c0.104-0.085 0.185-0.199 0.185-0.348 0-0.258-0.213-0.467-0.469-0.467-0.133 0-0.251 0.057-0.336 0.147l-0.005-0.01c-5.163 5.608-13.755 14.257-14.139 13.838-0.389-0.424 12.836-15.495 12.836-15.495 0.076-0.083 0.128-0.189 0.128-0.308 0-0.261-0.209-0.469-0.464-0.469-0.171 0-0.408 0.213-0.408 0.213-5.158 5.61-13.749 14.264-14.133 13.843-0.389-0.429 7.663-9.76 12.826-15.363l-0.024-0.021c0.02-0.036 0.044-0.064 0.044-0.109 0-0.147-0.124-0.268-0.271-0.268-0.052 0-0.1 0.028-0.143 0.061l-0.023-0.019C70.005 16.623 61.452 25.12 59.354 27.4c-3.415 3.709-3.169 9.004-3.169 9.004 0.412 1.698-0.246 4.045-1.45 5.215l-4.964 4.859 3.037 3.38 4.485-5.463c1.07-1.308 3.234-2.021 4.798-1.578 0 0 4.869 0.266 8.279-3.439 2.089-2.273 9.848-11.504 12.097-16.208 0.053-0.05 0.091-0.114 0.091-0.189C82.558 22.842 82.444 22.726 82.301 22.726z" data-fill-palette-color="accent"></path></svg></g></svg></g></svg></g><defs></defs></svg><rect width="395.52" height="99.8293614463029" fill="none" stroke="none" visibility="hidden"></rect></g></svg></g></svg>